<mxfile host="app.diagrams.net" modified="2022-07-26T09:30:21.460Z" agent="5.0 (Windows NT 10.0; Win64; x64) AppleWebKit/537.36 (KHTML, like Gecko) Chrome/103.0.0.0 Safari/537.36" etag="Px9EQSw2gIvflgbOXoSi" version="20.2.0" type="github">
  <diagram id="C5RBs43oDa-KdzZeNtuy" name="Page-1">
    <mxGraphModel dx="1422" dy="804" grid="1" gridSize="10" guides="1" tooltips="1" connect="1" arrows="1" fold="1" page="1" pageScale="1" pageWidth="827" pageHeight="1169" math="0" shadow="0">
      <root>
        <mxCell id="WIyWlLk6GJQsqaUBKTNV-0" />
        <mxCell id="WIyWlLk6GJQsqaUBKTNV-1" parent="WIyWlLk6GJQsqaUBKTNV-0" />
        <mxCell id="34dFONOBpZUZkgEqmKqN-16" value="" style="edgeStyle=orthogonalEdgeStyle;rounded=0;orthogonalLoop=1;jettySize=auto;html=1;entryX=0.5;entryY=0;entryDx=0;entryDy=0;" edge="1" parent="WIyWlLk6GJQsqaUBKTNV-1" source="34dFONOBpZUZkgEqmKqN-0" target="34dFONOBpZUZkgEqmKqN-19">
          <mxGeometry relative="1" as="geometry">
            <mxPoint x="395" y="185" as="targetPoint" />
          </mxGeometry>
        </mxCell>
        <mxCell id="34dFONOBpZUZkgEqmKqN-0" value="Start" style="strokeWidth=2;html=1;shape=mxgraph.flowchart.start_2;whiteSpace=wrap;" vertex="1" parent="WIyWlLk6GJQsqaUBKTNV-1">
          <mxGeometry x="365" y="40" width="70" height="70" as="geometry" />
        </mxCell>
        <mxCell id="34dFONOBpZUZkgEqmKqN-4" value="Yes" style="edgeStyle=orthogonalEdgeStyle;rounded=0;orthogonalLoop=1;jettySize=auto;html=1;exitX=1;exitY=0.5;exitDx=0;exitDy=0;" edge="1" parent="WIyWlLk6GJQsqaUBKTNV-1" source="34dFONOBpZUZkgEqmKqN-19" target="34dFONOBpZUZkgEqmKqN-3">
          <mxGeometry relative="1" as="geometry">
            <mxPoint x="445" y="210" as="sourcePoint" />
          </mxGeometry>
        </mxCell>
        <mxCell id="34dFONOBpZUZkgEqmKqN-6" value="No" style="edgeStyle=orthogonalEdgeStyle;rounded=0;orthogonalLoop=1;jettySize=auto;html=1;exitX=0;exitY=0.5;exitDx=0;exitDy=0;" edge="1" parent="WIyWlLk6GJQsqaUBKTNV-1" source="34dFONOBpZUZkgEqmKqN-19" target="34dFONOBpZUZkgEqmKqN-5">
          <mxGeometry relative="1" as="geometry">
            <mxPoint x="345" y="210" as="sourcePoint" />
          </mxGeometry>
        </mxCell>
        <mxCell id="34dFONOBpZUZkgEqmKqN-35" style="edgeStyle=orthogonalEdgeStyle;rounded=0;orthogonalLoop=1;jettySize=auto;html=1;exitX=0.5;exitY=1;exitDx=0;exitDy=0;entryX=0.5;entryY=0;entryDx=0;entryDy=0;" edge="1" parent="WIyWlLk6GJQsqaUBKTNV-1" source="34dFONOBpZUZkgEqmKqN-3" target="34dFONOBpZUZkgEqmKqN-9">
          <mxGeometry relative="1" as="geometry" />
        </mxCell>
        <mxCell id="34dFONOBpZUZkgEqmKqN-3" value="&lt;div&gt;Login to your account&lt;/div&gt;&lt;div&gt;https://fuelpass.gov.lk/login&lt;/div&gt;&lt;div&gt;Select City then&lt;/div&gt;&lt;div&gt;Click &quot;Request Fuel Slot&quot;&lt;/div&gt;" style="rounded=1;whiteSpace=wrap;html=1;absoluteArcSize=1;arcSize=14;strokeWidth=2;" vertex="1" parent="WIyWlLk6GJQsqaUBKTNV-1">
          <mxGeometry x="494" y="170" width="180" height="80" as="geometry" />
        </mxCell>
        <mxCell id="34dFONOBpZUZkgEqmKqN-22" style="edgeStyle=orthogonalEdgeStyle;rounded=0;orthogonalLoop=1;jettySize=auto;html=1;exitX=0.5;exitY=1;exitDx=0;exitDy=0;entryX=0.5;entryY=0;entryDx=0;entryDy=0;" edge="1" parent="WIyWlLk6GJQsqaUBKTNV-1" source="34dFONOBpZUZkgEqmKqN-5" target="34dFONOBpZUZkgEqmKqN-9">
          <mxGeometry relative="1" as="geometry" />
        </mxCell>
        <mxCell id="34dFONOBpZUZkgEqmKqN-5" value="&lt;div&gt;&lt;font color=&quot;#3a414a&quot;&gt;send SMS to XXXX&lt;/font&gt;&lt;/div&gt;&lt;div&gt;&lt;font color=&quot;#3a414a&quot;&gt;&amp;lt;CITY_CODE&amp;gt;&lt;/font&gt;&lt;/div&gt;" style="rounded=1;whiteSpace=wrap;html=1;strokeWidth=2;" vertex="1" parent="WIyWlLk6GJQsqaUBKTNV-1">
          <mxGeometry x="171" y="170" width="120" height="80" as="geometry" />
        </mxCell>
        <mxCell id="34dFONOBpZUZkgEqmKqN-25" value="No" style="edgeStyle=orthogonalEdgeStyle;rounded=0;orthogonalLoop=1;jettySize=auto;html=1;" edge="1" parent="WIyWlLk6GJQsqaUBKTNV-1" source="34dFONOBpZUZkgEqmKqN-9" target="34dFONOBpZUZkgEqmKqN-24">
          <mxGeometry relative="1" as="geometry" />
        </mxCell>
        <mxCell id="34dFONOBpZUZkgEqmKqN-27" value="Yes" style="edgeStyle=orthogonalEdgeStyle;rounded=0;orthogonalLoop=1;jettySize=auto;html=1;" edge="1" parent="WIyWlLk6GJQsqaUBKTNV-1" source="34dFONOBpZUZkgEqmKqN-9" target="34dFONOBpZUZkgEqmKqN-26">
          <mxGeometry relative="1" as="geometry" />
        </mxCell>
        <mxCell id="34dFONOBpZUZkgEqmKqN-9" value="Slot request already available?" style="rhombus;whiteSpace=wrap;html=1;rounded=1;strokeWidth=2;" vertex="1" parent="WIyWlLk6GJQsqaUBKTNV-1">
          <mxGeometry x="330" y="310" width="140" height="140" as="geometry" />
        </mxCell>
        <mxCell id="34dFONOBpZUZkgEqmKqN-19" value="Smart Device?" style="rhombus;whiteSpace=wrap;html=1;rounded=1;arcSize=14;strokeWidth=2;" vertex="1" parent="WIyWlLk6GJQsqaUBKTNV-1">
          <mxGeometry x="360" y="170" width="80" height="80" as="geometry" />
        </mxCell>
        <mxCell id="34dFONOBpZUZkgEqmKqN-30" value="" style="edgeStyle=orthogonalEdgeStyle;rounded=0;orthogonalLoop=1;jettySize=auto;html=1;" edge="1" parent="WIyWlLk6GJQsqaUBKTNV-1" source="34dFONOBpZUZkgEqmKqN-24" target="34dFONOBpZUZkgEqmKqN-29">
          <mxGeometry relative="1" as="geometry" />
        </mxCell>
        <mxCell id="34dFONOBpZUZkgEqmKqN-24" value="Reserve an available slot for the city requested." style="whiteSpace=wrap;html=1;rounded=1;strokeWidth=2;" vertex="1" parent="WIyWlLk6GJQsqaUBKTNV-1">
          <mxGeometry x="340" y="480" width="120" height="60" as="geometry" />
        </mxCell>
        <mxCell id="34dFONOBpZUZkgEqmKqN-28" style="edgeStyle=orthogonalEdgeStyle;rounded=0;orthogonalLoop=1;jettySize=auto;html=1;exitX=0.5;exitY=1;exitDx=0;exitDy=0;entryX=0;entryY=0.5;entryDx=0;entryDy=0;" edge="1" parent="WIyWlLk6GJQsqaUBKTNV-1" source="34dFONOBpZUZkgEqmKqN-26" target="34dFONOBpZUZkgEqmKqN-24">
          <mxGeometry relative="1" as="geometry" />
        </mxCell>
        <mxCell id="34dFONOBpZUZkgEqmKqN-26" value="Cancel existing slot reserved." style="whiteSpace=wrap;html=1;rounded=1;strokeWidth=2;" vertex="1" parent="WIyWlLk6GJQsqaUBKTNV-1">
          <mxGeometry x="137" y="350" width="120" height="60" as="geometry" />
        </mxCell>
        <mxCell id="34dFONOBpZUZkgEqmKqN-34" style="edgeStyle=orthogonalEdgeStyle;rounded=0;orthogonalLoop=1;jettySize=auto;html=1;exitX=0.5;exitY=1;exitDx=0;exitDy=0;entryX=0.5;entryY=0;entryDx=0;entryDy=0;entryPerimeter=0;" edge="1" parent="WIyWlLk6GJQsqaUBKTNV-1" source="34dFONOBpZUZkgEqmKqN-29" target="34dFONOBpZUZkgEqmKqN-33">
          <mxGeometry relative="1" as="geometry" />
        </mxCell>
        <mxCell id="34dFONOBpZUZkgEqmKqN-29" value="Send SMS confirming with slot unique ID." style="whiteSpace=wrap;html=1;rounded=1;strokeWidth=2;" vertex="1" parent="WIyWlLk6GJQsqaUBKTNV-1">
          <mxGeometry x="340" y="570" width="120" height="60" as="geometry" />
        </mxCell>
        <mxCell id="34dFONOBpZUZkgEqmKqN-33" value="End" style="strokeWidth=2;html=1;shape=mxgraph.flowchart.start_2;whiteSpace=wrap;" vertex="1" parent="WIyWlLk6GJQsqaUBKTNV-1">
          <mxGeometry x="365" y="660" width="70" height="70" as="geometry" />
        </mxCell>
      </root>
    </mxGraphModel>
  </diagram>
</mxfile>
